<mxfile modified="2024-04-23T16:54:45.099Z" host="app.diagrams.net" agent="Mozilla/5.0 (Windows NT 10.0; Win64; x64) AppleWebKit/537.36 (KHTML, like Gecko) Chrome/124.0.0.0 Safari/537.36" etag="GetwuJi_f3LVt564qwOC" version="24.2.7" type="github">
  <diagram id="l8hXMBHkgcEJcSW0mbfh" name="Page-1">
    <mxGraphModel dx="1434" dy="738" grid="1" gridSize="10" guides="1" tooltips="1" connect="1" arrows="1" fold="1" page="1" pageScale="1" pageWidth="1169" pageHeight="827" math="0" shadow="0">
      <root>
        <mxCell id="0" />
        <mxCell id="1" parent="0" />
        <mxCell id="gtZmH0xc7X_VaX0TCZXS-25" value="" style="rounded=0;whiteSpace=wrap;html=1;" vertex="1" parent="1">
          <mxGeometry x="140" y="14.5" width="840" height="710" as="geometry" />
        </mxCell>
        <mxCell id="gtZmH0xc7X_VaX0TCZXS-2" value="" style="sketch=0;points=[[0,0,0],[0.25,0,0],[0.5,0,0],[0.75,0,0],[1,0,0],[0,1,0],[0.25,1,0],[0.5,1,0],[0.75,1,0],[1,1,0],[0,0.25,0],[0,0.5,0],[0,0.75,0],[1,0.25,0],[1,0.5,0],[1,0.75,0]];outlineConnect=0;fontColor=#232F3E;fillColor=#ED7100;strokeColor=#ffffff;dashed=0;verticalLabelPosition=bottom;verticalAlign=top;align=center;html=1;fontSize=12;fontStyle=0;aspect=fixed;shape=mxgraph.aws4.resourceIcon;resIcon=mxgraph.aws4.lightsail;" vertex="1" parent="1">
          <mxGeometry x="160" y="30" width="78" height="78" as="geometry" />
        </mxCell>
        <mxCell id="gtZmH0xc7X_VaX0TCZXS-14" value="" style="group" vertex="1" connectable="0" parent="1">
          <mxGeometry x="150" y="341" width="180" height="159" as="geometry" />
        </mxCell>
        <mxCell id="gtZmH0xc7X_VaX0TCZXS-8" value="" style="rounded=1;whiteSpace=wrap;html=1;" vertex="1" parent="gtZmH0xc7X_VaX0TCZXS-14">
          <mxGeometry width="180" height="159" as="geometry" />
        </mxCell>
        <mxCell id="gtZmH0xc7X_VaX0TCZXS-1" value="" style="image;sketch=0;aspect=fixed;html=1;points=[];align=center;fontSize=12;image=img/lib/mscae/Docker.svg;" vertex="1" parent="gtZmH0xc7X_VaX0TCZXS-14">
          <mxGeometry x="10" y="10" width="50" height="41" as="geometry" />
        </mxCell>
        <mxCell id="gtZmH0xc7X_VaX0TCZXS-7" value="" style="shape=image;imageAspect=0;aspect=fixed;verticalLabelPosition=bottom;verticalAlign=top;image=https://streamlit.io/images/brand/streamlit-logo-primary-colormark-darktext.png;" vertex="1" parent="gtZmH0xc7X_VaX0TCZXS-14">
          <mxGeometry x="13.030000000000001" y="69" width="153.95" height="90" as="geometry" />
        </mxCell>
        <mxCell id="gtZmH0xc7X_VaX0TCZXS-15" value="" style="group" vertex="1" connectable="0" parent="1">
          <mxGeometry x="150" y="550" width="180" height="159" as="geometry" />
        </mxCell>
        <mxCell id="gtZmH0xc7X_VaX0TCZXS-11" value="" style="rounded=1;whiteSpace=wrap;html=1;" vertex="1" parent="gtZmH0xc7X_VaX0TCZXS-15">
          <mxGeometry width="180" height="159" as="geometry" />
        </mxCell>
        <mxCell id="gtZmH0xc7X_VaX0TCZXS-12" value="" style="image;sketch=0;aspect=fixed;html=1;points=[];align=center;fontSize=12;image=img/lib/mscae/Docker.svg;" vertex="1" parent="gtZmH0xc7X_VaX0TCZXS-15">
          <mxGeometry x="10" y="10" width="50" height="41" as="geometry" />
        </mxCell>
        <mxCell id="gtZmH0xc7X_VaX0TCZXS-13" value="" style="shape=image;imageAspect=0;aspect=fixed;verticalLabelPosition=bottom;verticalAlign=top;image=https://streamlit.io/images/brand/streamlit-logo-primary-colormark-darktext.png;" vertex="1" parent="gtZmH0xc7X_VaX0TCZXS-15">
          <mxGeometry x="13.030000000000001" y="69" width="153.95" height="90" as="geometry" />
        </mxCell>
        <mxCell id="gtZmH0xc7X_VaX0TCZXS-16" value="" style="group" vertex="1" connectable="0" parent="1">
          <mxGeometry x="530" y="341" width="180" height="159" as="geometry" />
        </mxCell>
        <mxCell id="gtZmH0xc7X_VaX0TCZXS-9" value="" style="rounded=1;whiteSpace=wrap;html=1;" vertex="1" parent="gtZmH0xc7X_VaX0TCZXS-16">
          <mxGeometry width="180" height="159" as="geometry" />
        </mxCell>
        <mxCell id="gtZmH0xc7X_VaX0TCZXS-5" value="" style="shape=image;imageAspect=0;aspect=fixed;verticalLabelPosition=bottom;verticalAlign=top;image=https://logowik.com/content/uploads/images/nginx7281.logowik.com.webp;" vertex="1" parent="gtZmH0xc7X_VaX0TCZXS-16">
          <mxGeometry x="33.660000000000025" y="70" width="112.67" height="84.5" as="geometry" />
        </mxCell>
        <mxCell id="gtZmH0xc7X_VaX0TCZXS-10" value="" style="image;sketch=0;aspect=fixed;html=1;points=[];align=center;fontSize=12;image=img/lib/mscae/Docker.svg;" vertex="1" parent="gtZmH0xc7X_VaX0TCZXS-16">
          <mxGeometry x="12" y="10" width="50" height="41" as="geometry" />
        </mxCell>
        <mxCell id="gtZmH0xc7X_VaX0TCZXS-18" value="" style="group" vertex="1" connectable="0" parent="1">
          <mxGeometry x="150" y="131" width="180" height="159" as="geometry" />
        </mxCell>
        <mxCell id="gtZmH0xc7X_VaX0TCZXS-19" value="" style="rounded=1;whiteSpace=wrap;html=1;" vertex="1" parent="gtZmH0xc7X_VaX0TCZXS-18">
          <mxGeometry width="180" height="159" as="geometry" />
        </mxCell>
        <mxCell id="gtZmH0xc7X_VaX0TCZXS-21" value="" style="image;sketch=0;aspect=fixed;html=1;points=[];align=center;fontSize=12;image=img/lib/mscae/Docker.svg;" vertex="1" parent="gtZmH0xc7X_VaX0TCZXS-18">
          <mxGeometry x="12" y="10" width="50" height="41" as="geometry" />
        </mxCell>
        <mxCell id="gtZmH0xc7X_VaX0TCZXS-17" value="" style="image;aspect=fixed;html=1;points=[];align=center;fontSize=12;image=img/lib/azure2/databases/Azure_Database_PostgreSQL_Server.svg;" vertex="1" parent="gtZmH0xc7X_VaX0TCZXS-18">
          <mxGeometry x="66" y="80" width="48" height="64" as="geometry" />
        </mxCell>
        <mxCell id="gtZmH0xc7X_VaX0TCZXS-30" style="edgeStyle=entityRelationEdgeStyle;rounded=0;orthogonalLoop=1;jettySize=auto;html=1;exitX=0;exitY=0.5;exitDx=0;exitDy=0;" edge="1" parent="1" source="gtZmH0xc7X_VaX0TCZXS-9" target="gtZmH0xc7X_VaX0TCZXS-19">
          <mxGeometry relative="1" as="geometry" />
        </mxCell>
        <mxCell id="gtZmH0xc7X_VaX0TCZXS-31" style="edgeStyle=entityRelationEdgeStyle;rounded=0;orthogonalLoop=1;jettySize=auto;html=1;exitX=0;exitY=0.5;exitDx=0;exitDy=0;" edge="1" parent="1" source="gtZmH0xc7X_VaX0TCZXS-9" target="gtZmH0xc7X_VaX0TCZXS-8">
          <mxGeometry relative="1" as="geometry" />
        </mxCell>
        <mxCell id="gtZmH0xc7X_VaX0TCZXS-32" style="edgeStyle=entityRelationEdgeStyle;rounded=0;orthogonalLoop=1;jettySize=auto;html=1;exitX=0;exitY=0.5;exitDx=0;exitDy=0;entryX=1;entryY=0.5;entryDx=0;entryDy=0;" edge="1" parent="1" source="gtZmH0xc7X_VaX0TCZXS-9" target="gtZmH0xc7X_VaX0TCZXS-11">
          <mxGeometry relative="1" as="geometry" />
        </mxCell>
      </root>
    </mxGraphModel>
  </diagram>
</mxfile>
